<svg width="22" height="26" viewBox="0 0 22 26" fill="none" xmlns="http://www.w3.org/2000/svg">
<path d="M1 19.3258V11.8812C1 6.75175 1 4.18703 2.46447 2.59351C3.92893 1 6.28596 1 11 1C15.714 1 18.0711 1 19.5356 2.59351C21 4.18703 21 6.75175 21 11.8812V19.3258C21 22.5812 21 24.2088 20.034 24.7915C18.1632 25.9196 14.654 22.1556 12.9875 21.0222C12.0209 20.3649 11.5377 20.0362 11 20.0362C10.4623 20.0362 9.979 20.3649 9.01251 21.0222C7.346 22.1556 3.83684 25.9196 1.96605 24.7915C1 24.2088 1 22.5812 1 19.3258Z" stroke="black" stroke-width="2" stroke-linecap="round" stroke-linejoin="round"/>
</svg>
