<svg width="29" height="28" viewBox="0 0 29 28" fill="none" xmlns="http://www.w3.org/2000/svg">
<g clip-path="url(#clip0_80_276)">
<path d="M14.4999 16C17.3599 16 19.6784 13.7614 19.6784 11C19.6784 8.23858 17.3599 6 14.4999 6C11.6398 6 9.32129 8.23858 9.32129 11C9.32129 13.7614 11.6398 16 14.4999 16Z" stroke="black" stroke-width="2" stroke-linecap="round" stroke-linejoin="round"/>
<path d="M5.65479 23.7998C6.57914 22.3348 7.87828 21.124 9.42729 20.284C10.9763 19.4437 12.7231 19.0024 14.4998 19.0024C16.2765 19.0024 18.0233 19.4437 19.5723 20.284C21.1214 21.124 22.4203 22.3348 23.3448 23.7998" stroke="black" stroke-width="2" stroke-linecap="round" stroke-linejoin="round"/>
<path d="M14.4999 27C21.9362 27 27.9642 21.1798 27.9642 14C27.9642 6.8203 21.9362 1 14.4999 1C7.06381 1 1.03564 6.8203 1.03564 14C1.03564 21.1798 7.06381 27 14.4999 27Z" stroke="black" stroke-width="2" stroke-linecap="round" stroke-linejoin="round"/>
</g>
<defs>
<clipPath id="clip0_80_276">
<rect width="29" height="28" fill="white"/>
</clipPath>
</defs>
</svg>
