<svg width="23" height="28" viewBox="0 0 23 28"  xmlns="http://www.w3.org/2000/svg">
<path d="M22 16.2862H23V16.2862L22 16.2862ZM22 16.7706L23 16.771V16.7706H22ZM21.2012 20.1231L22.1153 20.5284L22.1154 20.5284L21.2012 20.1231ZM18.9248 23.3047L19.6075 24.0355L19.6075 24.0354L18.9248 23.3047ZM15.5186 25.4317L15.8794 26.3643L15.8795 26.3643L15.5186 25.4317ZM11.5 26.1778V27.1778V26.1778ZM7.48145 25.4317L7.12053 26.3643L7.12055 26.3643L7.48145 25.4317ZM4.0752 23.3047L3.3925 24.0354L3.39252 24.0355L4.0752 23.3047ZM1.79883 20.1231L0.884649 20.5284L0.884664 20.5284L1.79883 20.1231ZM1.0127 16.8506L0.0130414 16.8769C0.013272 16.8857 0.0136178 16.8945 0.0140786 16.9032L1.0127 16.8506ZM1 16.3682L0 16.3682C-3.57628e-07 16.377 0.000114977 16.3857 0.000346065 16.3945L1 16.3682ZM16.6653 5.22128L16.058 4.42679L16.6653 5.22128ZM16.8326 5.21966L16.2258 6.01452L16.8326 5.21966ZM13.4991 8.905L14.3588 9.41575L13.4991 8.905ZM21.9788 16.9708L22.9584 17.172L21.9788 16.9708ZM21.9758 16.9924L22.9735 17.0604L21.9758 16.9924ZM8.45341 1.04122L7.75081 1.7528L8.45341 1.04122ZM8.26557 1.03262L8.89954 1.80597L8.26557 1.03262ZM8.45341 1.04122L7.75081 1.7528C8.20852 2.20473 10.7298 4.83083 12.2769 9.21044L13.2198 8.87738L14.1627 8.54432C12.4783 3.77592 9.73457 0.900879 9.15601 0.329631L8.45341 1.04122ZM13.4991 8.905L14.3588 9.41575C15.5638 7.38752 16.966 6.25015 17.2726 6.01577L16.6653 5.22128L16.058 4.42679C15.6264 4.75673 14.017 6.07533 12.6394 8.39426L13.4991 8.905ZM16.8326 5.21966L16.2258 6.01452C16.8063 6.45772 20.9999 9.88841 21 16.2862L22 16.2862L23 16.2862C22.9999 8.9508 18.1965 5.00282 17.4394 4.4248L16.8326 5.21966ZM22 16.2862H21V16.7706H22H23V16.2862H22ZM22 16.7706L21 16.7701L20.9993 16.7696L21.9788 16.9708L22.9584 17.172C22.9833 17.0505 22.9999 16.9159 23 16.771L22 16.7706ZM21.9758 16.9924L20.9781 16.9243C20.9127 17.8837 20.6816 18.8278 20.287 19.7178L21.2012 20.1231L22.1154 20.5284C22.6054 19.4232 22.8923 18.2506 22.9735 17.0604L21.9758 16.9924ZM21.2012 20.1231L20.287 19.7178C19.8154 20.7814 19.1214 21.7525 18.2421 22.574L18.9248 23.3047L19.6075 24.0354C20.6778 23.0355 21.5317 21.8447 22.1153 20.5284L21.2012 20.1231ZM18.9248 23.3047L18.2421 22.574C17.3626 23.3957 16.3149 24.0512 15.1576 24.4991L15.5186 25.4317L15.8795 26.3643C17.2698 25.8262 18.5371 25.0354 19.6075 24.0355L18.9248 23.3047ZM15.5186 25.4317L15.1577 24.4991C14.0003 24.947 12.757 25.1778 11.5 25.1778V26.1778V27.1778C13.0008 27.1778 14.489 26.9024 15.8794 26.3643L15.5186 25.4317ZM11.5 26.1778V25.1778C10.243 25.1778 8.99974 24.947 7.84234 24.4991L7.48145 25.4317L7.12055 26.3643C8.51099 26.9024 9.99922 27.1778 11.5 27.1778V26.1778ZM7.48145 25.4317L7.84237 24.4991C6.68506 24.0512 5.63738 23.3957 4.75787 22.574L4.0752 23.3047L3.39252 24.0355C4.46289 25.0354 5.73021 25.8262 7.12053 26.3643L7.48145 25.4317ZM4.0752 23.3047L4.75789 22.574C3.87855 21.7525 3.1846 20.7814 2.71299 19.7178L1.79883 20.1231L0.884664 20.5284C1.4683 21.8447 2.32221 23.0355 3.3925 24.0354L4.0752 23.3047ZM1.79883 20.1231L2.71301 19.7178C2.30033 18.787 2.06401 17.799 2.01131 16.7981L1.0127 16.8506L0.0140786 16.9032C0.0796892 18.1493 0.373834 19.3763 0.884649 20.5284L1.79883 20.1231ZM1.0127 16.8506L2.01235 16.8243L1.99965 16.3419L1 16.3682L0.000346065 16.3945L0.0130414 16.8769L1.0127 16.8506ZM1 16.3682L2 16.3683C2.00038 7.76954 8.08105 2.47695 8.89954 1.80597L8.26557 1.03262L7.63159 0.259265C6.70677 1.01741 0.000417709 6.82559 0 16.3682L1 16.3682ZM16.6653 5.22128L17.2726 6.01577C16.983 6.23715 16.5514 6.26309 16.2258 6.01452L16.8326 5.21966L17.4394 4.4248C17.0125 4.09894 16.4489 4.12804 16.058 4.42679L16.6653 5.22128ZM13.2198 8.87738L12.2769 9.21044C12.6022 10.1315 13.8587 10.2576 14.3588 9.41575L13.4991 8.905L12.6394 8.39426C13.0068 7.77584 13.9239 7.86833 14.1627 8.54432L13.2198 8.87738ZM21.9788 16.9708L20.9993 16.7696C20.9896 16.8165 20.982 16.8683 20.9781 16.9243L21.9758 16.9924L22.9735 17.0604C22.9707 17.102 22.9651 17.1394 22.9584 17.172L21.9788 16.9708ZM8.45341 1.04122L9.15601 0.329631C8.73893 -0.0821797 8.08314 -0.110901 7.63159 0.259265L8.26557 1.03262L8.89954 1.80597C8.5614 2.08317 8.06355 2.06159 7.75081 1.7528L8.45341 1.04122Z" fill="black"/>
</svg>
