<svg width="24" height="27" viewBox="0 0 24 27" fill="none" xmlns="http://www.w3.org/2000/svg">
<path d="M12 1V0V1ZM23 11.6484L24 11.6484V11.6484H23ZM12.3867 25.1582L12.823 26.058L12.823 26.058L12.3867 25.1582ZM11.6133 25.1582L11.177 26.058L11.177 26.058L11.6133 25.1582ZM1 11.6484H0V11.6484L1 11.6484ZM12 7.08496L12 6.08496H12V7.08496ZM7.28516 11.6484L6.28516 11.6484V11.6484H7.28516ZM12 16.2119V17.2119H12L12 16.2119ZM16.7139 11.6484H17.7139V11.6484L16.7139 11.6484ZM12 1V2C17.5537 2 22 6.35027 22 11.6484H23H24C24 5.18499 18.5966 1.19209e-07 12 0V1ZM23 11.6484L22 11.6484C22 15.2192 20.0486 18.115 17.7392 20.2902C15.4349 22.4605 12.8834 23.8061 11.9504 24.2584L12.3867 25.1582L12.823 26.058C13.8405 25.5647 16.5957 24.1146 19.1104 21.7461C21.62 19.3824 24 15.9963 24 11.6484L23 11.6484ZM12.3867 25.1582L11.9505 24.2584C11.9582 24.2546 11.9758 24.2487 12 24.2487C12.0242 24.2487 12.0418 24.2546 12.0495 24.2584L11.6133 25.1582L11.177 26.058C11.7013 26.3122 12.2987 26.3122 12.823 26.058L12.3867 25.1582ZM11.6133 25.1582L12.0496 24.2584C11.1166 23.8061 8.56514 22.4605 6.26085 20.2902C3.95142 18.115 2.00001 15.2192 2 11.6484L1 11.6484L0 11.6484C1.20401e-05 15.9963 2.38001 19.3824 4.88959 21.7461C7.40432 24.1146 10.1595 25.5647 11.177 26.058L11.6133 25.1582ZM1 11.6484H2C2 6.35027 6.4463 2 12 2V1V0C5.40344 0 0 5.18499 0 11.6484H1ZM12 7.08496V6.08496C8.87516 6.08496 6.28525 8.54534 6.28516 11.6484L7.28516 11.6484L8.28516 11.6485C8.28521 9.71097 9.91768 8.08496 12 8.08496V7.08496ZM7.28516 11.6484H6.28516C6.28516 14.7516 8.87514 17.2119 12 17.2119V16.2119V15.2119C9.9176 15.2119 8.28516 13.5859 8.28516 11.6484H7.28516ZM12 16.2119L12 17.2119C15.125 17.2118 17.7139 14.7513 17.7139 11.6484H16.7139H15.7139C15.7139 13.5861 14.0821 15.2118 12 15.2119L12 16.2119ZM16.7139 11.6484L17.7139 11.6484C17.7138 8.54563 15.125 6.08508 12 6.08496L12 7.08496L12 8.08496C14.082 8.08504 15.7138 9.7108 15.7139 11.6485L16.7139 11.6484Z" fill="black"/>
</svg>
